{
    "accessors" : [
        {
            "bufferView" : 0,
            "componentType" : 5123,
            "count" : 48222,
            "max" : [
                10044
            ],
            "min" : [
                0
            ],
            "type" : "SCALAR"
        },
        {
            "bufferView" : 1,
            "componentType" : 5126,
            "count" : 10045,
            "max" : [
                368.2874450683594,
                897.2354736328125,
                217.56809997558594
            ],
            "min" : [
                -964.7376098632812,
                -896.6705322265625,
                -232.56130981445312
            ],
            "type" : "VEC3"
        },
        {
            "bufferView" : 2,
            "componentType" : 5126,
            "count" : 10045,
            "max" : [
                0.99981689453125,
                0.999969482421875,
                0.999969482421875
            ],
            "min" : [
                -0.999969482421875,
                -0.999969482421875,
                -0.999969482421875
            ],
            "type" : "VEC3"
        },
        {
            "bufferView" : 3,
            "componentType" : 5126,
            "count" : 10045,
            "max" : [
                0.9999999403953552,
                0.9999908804893494,
                0.9999220371246338,
                1.0
            ],
            "min" : [
                -0.9996428489685059,
                -0.9999908208847046,
                -0.9990448355674744,
                -1.0
            ],
            "type" : "VEC4"
        },
        {
            "bufferView" : 4,
            "componentType" : 5126,
            "count" : 10045,
            "max" : [
                0.9980679750442505,
                0.9970239999238402
            ],
            "min" : [
                0.002509000012651086,
                0.0018320083618164062
            ],
            "type" : "VEC2"
        }
    ],
    "asset" : {
        "generator" : "Khronos Blender glTF 2.0 exporter",
        "version" : "2.0"
    },
    "bufferViews" : [
        {
            "buffer" : 0,
            "byteLength" : 96444,
            "byteOffset" : 0,
            "target" : 34963
        },
        {
            "buffer" : 0,
            "byteLength" : 120540,
            "byteOffset" : 96444,
            "target" : 34962
        },
        {
            "buffer" : 0,
            "byteLength" : 120540,
            "byteOffset" : 216984,
            "target" : 34962
        },
        {
            "buffer" : 0,
            "byteLength" : 160720,
            "byteOffset" : 337524,
            "target" : 34962
        },
        {
            "buffer" : 0,
            "byteLength" : 80360,
            "byteOffset" : 498244,
            "target" : 34962
        }
    ],
    "buffers" : [
        {
            "byteLength" : 578604,
            "uri" : "dragon1.bin"
        }
    ],
    "materials" : [
        {
            "name" : "Physical",
            "pbrMetallicRoughness" : {
                "baseColorFactor" : [
                    0.6400000190734865,
                    0.6400000190734865,
                    0.6400000190734865,
                    1.0
                ],
                "metallicFactor" : 0.0
            }
        }
    ],
    "meshes" : [
        {
            "name" : "Alduin_Dragon",
            "primitives" : [
                {
                    "attributes" : {
                        "NORMAL" : 2,
                        "POSITION" : 1,
                        "TANGENT" : 3,
                        "TEXCOORD_0" : 4
                    },
                    "indices" : 0,
                    "material" : 0
                }
            ]
        }
    ],
    "nodes" : [
        {
            "mesh" : 0,
            "name" : "Alduin_Dragon",
            "rotation" : [
                0.7071068286895752,
                0.0,
                -0.0,
                0.7071067094802856
            ],
            "scale" : [
                0.009999999776482582,
                0.009999999776482582,
                0.009999999776482582
            ],
            "translation" : [
                0.0,
                2.1789464950561523,
                -0.0
            ]
        },
        {
            "name" : "Camera",
            "rotation" : [
                0.483536034822464,
                0.33687159419059753,
                -0.20870360732078552,
                0.7804827094078064
            ],
            "translation" : [
                7.481131553649902,
                5.34366512298584,
                6.5076398849487305
            ]
        },
        {
            "name" : "Lamp",
            "rotation" : [
                0.16907575726509094,
                0.7558802962303162,
                -0.27217137813568115,
                0.570947527885437
            ],
            "scale" : [
                1.0,
                1.0,
                0.9999999403953552
            ],
            "translation" : [
                4.076245307922363,
                5.903861999511719,
                -1.0054539442062378
            ]
        }
    ],
    "scene" : 0,
    "scenes" : [
        {
            "name" : "Scene",
            "nodes" : [
                0,
                2,
                1
            ]
        }
    ]
}
